/* XPM */
static char *_813b8a34e554817e9dd4161e55627b2wHiGO3cIcmfylybo[] = {
/* columns rows colors chars-per-pixel */
"49 42 3 1 ",
"  c None",
". c black",
"X c white",
/* pixels */
"                                                 ",
"                                                 ",
"                                                 ",
"                                                 ",
"                                                 ",
"                    ........                     ",
"                    ........                     ",
"                  ..XXXXXXXX........             ",
"                  ..XXXXXXXX........             ",
"                ..XXXXXX....XXXXXX..             ",
"                ..XXXXXX....XXXXXX..             ",
"              ..XXXXXX..XXXX........             ",
"              ..XXXXXX..XXXX........             ",
"              ..XXXXXXXX....XX....               ",
"              ..XXXXXXXX....XX....               ",
"              ..........XXXX..XX..               ",
"              ..........XXXX..XX..               ",
"            ......XXXX..XXXX..XX..               ",
"            ......XXXX..XXXX..XX..               ",
"            ......XXXXXXXXXXXXXX..               ",
"            ......XXXXXXXXXXXXXX..               ",
"              ........XXXXXXXX..                 ",
"              ........XXXXXXXX..                 ",
"                    ..........                   ",
"                    ..........                   ",
"                    ........                     ",
"                    ........                     ",
"                  ....XXXX..                     ",
"                  ....XXXX..                     ",
"                  ....XXXX....                   ",
"                  ....XXXX....                   ",
"                  ............                   ",
"                  ............                   ",
"                  ..XXXXXXXX..                   ",
"                  ..XXXXXXXX..                   ",
"                  ............                   ",
"                  ............                   ",
"                                                 ",
"                                                 ",
"                                                 ",
"                                                 ",
"                                                 "
};
