/* XPM */
static char *f58ece598bf146ccbd635e2e68a9ffa50u0hmO7sbqQ6Ffwv[] = {
/* columns rows colors chars-per-pixel */
"64 64 196 2 ",
"   c black",
".  c #010101",
"X  c #020202",
"o  c gray1",
"O  c #040404",
"+  c gray2",
"@  c #060606",
"#  c #070707",
"$  c gray3",
"%  c #090909",
"&  c gray4",
"*  c #0B0B0B",
"=  c #0C0C0C",
"-  c gray5",
";  c #0E0E0E",
":  c gray6",
">  c #101010",
",  c #111111",
"<  c gray7",
"1  c #131313",
"2  c gray8",
"3  c #151515",
"4  c #161616",
"5  c #191919",
"6  c gray10",
"7  c #1B1B1B",
"8  c gray11",
"9  c #1D1D1D",
"0  c #1E1E1E",
"q  c gray12",
"w  c #202020",
"e  c gray13",
"r  c #222222",
"t  c #232323",
"y  c gray17",
"u  c #2C2C2C",
"i  c #2D2D2D",
"p  c gray18",
"a  c #2F2F2F",
"s  c gray19",
"d  c #313131",
"f  c #323232",
"g  c gray20",
"h  c #343434",
"j  c #353535",
"k  c gray21",
"l  c gray22",
"z  c #3C3C3C",
"x  c gray24",
"c  c #3E3E3E",
"v  c #3F3F3F",
"b  c gray25",
"n  c #414141",
"m  c gray26",
"M  c #434343",
"N  c gray28",
"B  c #484848",
"V  c #494949",
"C  c #4B4B4B",
"Z  c #4C4C4C",
"A  c gray30",
"S  c #4E4E4E",
"D  c gray31",
"F  c #505050",
"G  c #515151",
"H  c gray32",
"J  c gray35",
"K  c #5A5A5A",
"L  c #5B5B5B",
"P  c gray36",
"I  c #5D5D5D",
"U  c gray37",
"Y  c #5F5F5F",
"T  c #606060",
"R  c gray38",
"E  c #626262",
"W  c gray39",
"Q  c #646464",
"!  c #656565",
"~  c DimGray",
"^  c gray42",
"/  c #6C6C6C",
"(  c #6D6D6D",
")  c gray43",
"_  c #6F6F6F",
"`  c gray44",
"'  c #717171",
"]  c #727272",
"[  c gray45",
"{  c #747474",
"}  c gray46",
"|  c #767676",
" . c gray47",
".. c gray48",
"X. c #7B7B7B",
"o. c #7C7C7C",
"O. c gray49",
"+. c #7E7E7E",
"@. c gray50",
"#. c #808080",
"$. c #818181",
"%. c gray51",
"&. c #838383",
"*. c #848484",
"=. c gray52",
"-. c gray53",
";. c #888888",
":. c gray54",
">. c #8B8B8B",
",. c gray55",
"<. c #8D8D8D",
"1. c #8E8E8E",
"2. c gray56",
"3. c #909090",
"4. c gray57",
"5. c #929292",
"6. c gray58",
"7. c #979797",
"8. c #9A9A9A",
"9. c #9B9B9B",
"0. c gray61",
"q. c #9D9D9D",
"w. c gray62",
"e. c #9F9F9F",
"r. c #A0A0A0",
"t. c gray63",
"y. c #A2A2A2",
"u. c gray64",
"i. c #A5A5A5",
"p. c gray65",
"a. c #AAAAAA",
"s. c gray67",
"d. c #ACACAC",
"f. c gray68",
"g. c #AEAEAE",
"h. c #AFAFAF",
"j. c gray69",
"k. c #B1B1B1",
"l. c #B2B2B2",
"z. c gray71",
"x. c #B6B6B6",
"c. c gray73",
"v. c #BBBBBB",
"b. c #BCBCBC",
"n. c gray74",
"m. c gray",
"M. c gray75",
"N. c #C0C0C0",
"B. c #C1C1C1",
"V. c gray76",
"C. c #C3C3C3",
"Z. c gray77",
"A. c #C6C6C6",
"S. c #C8C8C8",
"D. c #CBCBCB",
"F. c #CDCDCD",
"G. c #CECECE",
"H. c gray81",
"J. c #D0D0D0",
"K. c gray82",
"L. c #D2D2D2",
"P. c LightGray",
"I. c #D7D7D7",
"U. c #D8D8D8",
"Y. c #DADADA",
"T. c gray86",
"R. c gainsboro",
"E. c #DDDDDD",
"W. c gray87",
"Q. c #DFDFDF",
"!. c gray88",
"~. c #E1E1E1",
"^. c #E2E2E2",
"/. c #E4E4E4",
"(. c #E6E6E6",
"). c #E9E9E9",
"_. c #EAEAEA",
"`. c gray92",
"'. c #ECECEC",
"]. c gray93",
"[. c #EEEEEE",
"{. c #EFEFEF",
"}. c gray94",
"|. c #F1F1F1",
" X c gray95",
".X c #F3F3F3",
"XX c gray96",
"oX c #F6F6F6",
"OX c #F8F8F8",
"+X c #F9F9F9",
"@X c gray98",
"#X c #FBFBFB",
"$X c gray99",
"%X c #FDFDFD",
"&X c #FEFEFE",
"*X c white",
/* pixels */
"                                                    O                           O         O                                     ",
"                                                          O O                       O                                           ",
"                                                    O O                         O             O                                 ",
"                                                                                        O                                       ",
"                                                                                        O                                       ",
"                                                & k D D G G C D D D D D D D D D k O O                                           ",
"                                                6 $.F.P.F.P.F.P.F.F.F.P.F.F.F.P.O.6                                             ",
"                                                6 t.*X*X*X*X*X*X*X*X*X*X*X*X*X*Xt.0   O                                         ",
"                                                w 9.*X*X*X@X*X*X*X*X*X*X*X*X*X*Xt.w                                             ",
"                                O O     O l Y J | V.*X@X*X*X*X*X`.x.q.q.q.t.q.t.$.^ E Y Y E Q Y J Y E E i     O                 ",
"                                        < O.^.^.^.|.*X*X*X*X*X*XA.J w w 0 t 0 0 ^ A.W.W.W.W.W.^.^.^.^.I.E                       ",
"                                        : <.*X@X*X*X@X*X*X*X*X*XV.c             Y ^.*X*X*X*X@X*X*X*X*X*X[   O                   ",
"                                        : <.*X*X*X*X*X*X*X*X*X*XV.m   O         Y U.*X*X@X*X*X*X*X*X*X@X[                       ",
"                                  k [ [  .m.@X*X*X*X*X*X`.k.<.3.*.| ^ ) [ | [ )  .<.3.3.<.<.<.<.<.3.3.<.c   O                   ",
"                                O  .`.[.[.@X*X*X*X@X*X*XI.J : : C x.oX|.`.[.[.`.9.g O : 2 2 : < : : : < &                       ",
"                                  $.*X*X*X*X@X*X*X*X*XoXP.D     c m.*X@X*X*X*X*Xq.0 O             O       O                     ",
"                                  *.*X*X*X*X*X*X*X@X*X*XS.G     m c.*X*X*X*X*X*Xt.0           O             O                   ",
"                                  O.@X*X*X*X@X*X*X*X*X*X(.a.O.$.$.$.$.$.O.O. .$.O.$.O.$.C O O                                   ",
"                                O $.*X*X*X@X*X*X@X*X*X*X*X*X@X*Xm.m       O O   E U.*X*X>.<       O                             ",
"                                  $.*X*X*X*X*X*X*X*X*X*X*X*X*X*Xm.l   O         E ^.*X*X<.<       O       O                     ",
"                                   .`.|.[.`.|.[.[.`.[.|.|.[.[.[.x.D : & : : : < Q P.[.[.<.6 < < &                               ",
"                                  k ) [ [ ) [ ) [ [ ) ) ) ) ) [ | *.3.<.3.<.<.3.$.[ ) ) O.>.3.<.C             O                 ",
"                                    O             O             m c.*X*X*X*X*X*Xq.w     ) |.*X@X .O     O O                     ",
"                                O                               c m.*X*X*X*X*X*Xt.0     ) [.*X*X$.  O                           ",
"                                      O   : 0 0 w w 0 0 0 O   O m V.@X@X*X*X*X*Xq.0     [ |.*X*X$.                              ",
"                                        & J t.t.q.q.t.q.$.g     c V.*X*X*X@X*X*Xt.w     ) [.*X*X$.                              ",
"                                        : >.*X@X*X*X*X*XF.D     c V.*X*X*X*X*X*Xt.w     ) [.*X*X$.  O                           ",
"                                    O   : <.*X*X*X*X*X*XP.G     c m.*X*X*X*X*X@Xq.w     ) [.*X*X$.                              ",
"                                O       < <.*X*X*X*X*X@XI.) i i Q S.*X*X*X@X*X*Xk.D y k >.|.*X*X$.                              ",
"                                    O   < 3.*X*X@X*X*X*XoXA.h.k.V.[.*X*X*X*X*X*X^.x.h.a.F.@X*X*XO.                              ",
"                                        < <.*X*X*X*X*X*X*X@X*X*X*X*X*X@X*X*X*X*X*X*X*X*X*X*X@X*X$.                              ",
"                                O       : <.*X*X*X*X*X*X*X*X*X@X*X*X*X*X*X*X*X@X*X*X@X@X*X*X*X*X$.  O                           ",
"                                    O   : ) m.m.c.m.m.m.S.[.*X*X*X*X*X*X*X*X*X*X*X*X*X*X^.V.m.m.E                               ",
"                                O         w m m c m c m Q m.*X*X*X*X*X*X*X*X*X*X*X*X*X*Xa.C m m w   O       O                   ",
"                                                        i k.*X@X*X*X*X*X*X*X*X*X*X@X*X*X<.&                 O                   ",
"                                  O     O         O     i k.*X*X*X*X*X*X*X*X*X*X*X*X@X*X3.:       &           O                 ",
"                                  O               O     w  .h.k.h.h.h.h.h.h.a.h.h.h.k.a.E :           O                         ",
"                                          O O           & t i i i i i g i g g i i g g g 6 O           O   O                     ",
"                                O                                                           O                                   ",
"                                                O     O                               O     O     O     O                       ",
"                                                O           O                                                                   ",
"                                                    O       O     O   O       O                                                 ",
"                                                O   O       O           O                                                       ",
"                                                                O O                                                             ",
"                                                        2 D ) ) [ ) ) [ C 2                                                     ",
"                                                  O     i t.[.|.[.[.[.[.p.i                                                     ",
"                                                        g h.*X@X*X@X*X*Xh.y   O                                                 ",
"                                                        i a.*X*X*X*X*X*Xh.g                                                     ",
"                                                      O y k.*X*X*X*X*X*Xh.i                                                     ",
"                                                      O i k.*X*X*X*X*X*Xk.k                                                     ",
"                                                  O     i k.*X*X*X@X*X*Xa.i         O                                           ",
"                                                        g a.@X*X*X*X*X*Xa.g   O                                                 ",
"                                                        2 D [ [ ) ) ) [ G 2                                                     ",
"                                                                                                                                ",
"                                                &                           O   O                                               ",
"                                                  O < : < < < & < : : : : : : < O O O                                           ",
"                                                2 E t.9.t.9.t.q.q.t.q.t.q.q.t.q.Q :     O                                       ",
"                                                0 9.*X*X*X*X*X*X*X*X*X*X*X*X*X*X9.w O         O                                 ",
"                                                0 p.*X@X*X*X*X*X*X*X*X*X*X*X*X*Xp.0                                             ",
"                                                6 >.W.W.^.W.^.U.W.^.W.W.W.W.^.W.*.0                                             ",
"                                                & g D D D D G G D D D D D D D D l :         O                                   ",
"                                                                                            O                                   ",
"                                                      O       O                   O O       O                                   ",
"                                                                                          O                                     "
};
