/* XPM */
static char *_8e5d1db615942e7c4f4f739abd9c7ca0ZYErz7dfFPiO2iF[] = {
/* columns rows colors chars-per-pixel */
"17 26 19 1 ",
"  c None",
". c #524949",
"X c #665C5C",
"o c #604869",
"O c #78507D",
"+ c #A1562B",
"@ c #AD5C2D",
"# c #BF6E2C",
"$ c #CF7D25",
"% c #B3836F",
"& c #8F5A8C",
"* c #AD66A3",
"= c #8A9EA6",
"- c #94AEB5",
"; c #DCA884",
": c #F1BC8F",
"> c #FACF8E",
", c #ADD3D5",
"< c #CFFFFB",
/* pixels */
"                 ",
"        %%%      ",
"       %>:;%     ",
"       %:;;%     ",
"      o*%%%*o    ",
"     o**&*&**o   ",
"    o*&*&*&*&*o  ",
"    o*O&O&O&O*o  ",
"    o&O&O&O&O&o  ",
"   ooooooooooooo ",
"   o*&*&*&*&*&*o ",
"   o&O&O&O&O&O&o ",
"   =ooooooooooo= ",
"   =,<X.<<<X.<,= ",
"   =,<..<<<..<,= ",
"    =,<<+#+<<,=  ",
"    =-,,@$@,,-=  ",
"   =<,--@@,--,,= ",
"  =<<<,,---,,,,,=",
"  =<<<<,..,,<<,,=",
"  =<<<<<..<<<<<,=",
"  =,<<<<,,<<<<<,=",
"  =,<<<<<<<<<<,,=",
"   =,,<<..<<<,,= ",
"    =,,,..,,,,=  ",
"     ==,,,,,==   "
};
