/* XPM */
static char *f827a491621c426085b707c121f562e9J3Y22q9MLeNgs6ad[] = {
/* columns rows colors chars-per-pixel */
"64 64 7 1 ",
"  c #83A448",
". c #8BAC50",
"X c #91AF55",
"o c #83883C",
"O c #A0B74F",
"+ c #8CB541",
"@ c white",
/* pixels */
"           . .     XX Xoo X      OO        OO  OO          .. . ",
"           .      ooX    XX      OO       ooO OO            .  .",
"                         Xoo OOOooO           Ooo           .. .",
"o                             OOO                            . .",
"                             oooO                            .  ",
"O                                                 XX            ",
"OO             XX                                  XX  OO       ",
"OO         X  XX                   .        XX    ooX OO        ",
"oO         XX Xoo             .. ..    OO  XX         Ooo       ",
"           XX                .. ..  .   OO Xoo              O  O",
"          ooX   XXX   .      .  .  .   ooO        O         OO O",
"                oXXX   .. ..      ..             OO        ooO  ",
"                 oo  .  .. ..     .          OO  OO             ",
"                      .  .  .                 OO Ooo            ",
"                      ..                    oooO                ",
".                      .                                        ",
"                                                            .   ",
"                                                       .. ..    ",
" XX                                       .           .. ..  .  ",
"  XXX                                      .. ..      .  .  .   ",
"   XX X                                   .  .. ..          ..  ",
"                                          .  .  .          .    ",
"                                          ..                    ",
"                                           .                    ",
"                                                                ",
".                                                               ",
".                                      XX                XX     ",
".                            .          XX  X              XXX  ",
"                        .. ..          ooX XX             XXXoo ",
"                       .. ..  .            Xoo                  ",
"                .      .  .  .                             .  . ",
"X                .. ..      ..                             .. . ",
"XX             .  .. ..     .                               .  .",
"XX              .  .  .         XX                          .. .",
"oX              ..             XX                            . .",
"                 .         XX  Xoo                 X         .  ",
"                            XX                     XX           ",
"                           ooX                     XX           ",
"                         .     XXX                ooX XXX       ",
"                  .  .   .     oXXX            XXX    oXXX      ",
"                  .. .  ..      oo              XXX    oo       ",
"                   .  . .                      oooX             ",
"                   .. . .                                       ",
"                    . .                                         ",
"                    .                                     XX    ",
"                                             .             XXX  ",
"                                        .. ..             oo    ",
"              XX        .       X      .. ..  .                 ",
"             XX  .  .   .      XX      .  .  .                  ",
"         XX  Xoo .. .  ..   X  XX           ..                 .",
"          XX      .  . .    XX Xoo          .           .  .   .",
"         ooX      .. . .   ooX                          .. .  ..",
"                   . .                                   .  . . ",
"                   .                                     .. . . ",
"                                                          . .   ",
"                                                          .     ",
"                                                                ",
"                                                                ",
"   .                                   XX                       ",
" ..                                     XX  O                   ",
"..  .                                  ooX OO                   ",
".  .                                       Ooo                  ",
"  ..        +                                                   ",
"  .         +        +                                   .  .   "
};
