/* XPM */
static char *_c11fe10785145e5f5bfa7aec8490f361tzLYpUH3xXjpCeF[] = {
/* columns rows colors chars-per-pixel */
"64 64 19 1 ",
"  c black",
". c #010101",
"X c #020202",
"o c gray1",
"O c #040404",
"+ c gray2",
"@ c #060606",
"# c #070707",
"$ c gray3",
"% c #F6F6F6",
"& c gray97",
"* c #F8F8F8",
"= c #F9F9F9",
"- c gray98",
"; c #FBFBFB",
": c gray99",
"> c #FDFDFD",
", c #FEFEFE",
"< c white",
/* pixels */
"                                                                ",
"                                                                ",
"                                                                ",
"                                                                ",
"                                                                ",
"                                                                ",
"                                                                ",
"                                                                ",
"                                                                ",
"                                                                ",
"                                                                ",
"                                                                ",
"                                                                ",
"                                                                ",
"                                                                ",
"                                                                ",
"                 +  +     +        +       + +                  ",
"                  +  + +   <<<<=<=<   +  +                      ",
"                 $ +       <=<<<<<<  $ +                        ",
"                  +    + <<<<<=    <<<<=<   +  +                ",
"                     +   <<=<<<    <<<<<<   +                   ",
"                  +    <=<<<<  <<<< +                           ",
"                +  $  +<<=<<<  <<=<       +                     ",
"                 +     <=<<<<<<  + <<      + +                  ",
"                      +<<<<<<=<  ++<<                           ",
"                   + +       + <<==  <<                         ",
"                 $    $  +     <<=<  <<+                        ",
"                +        %<<<  =<<=  <<                         ",
"                  ++  +  <<=<  <<<<  <<                         ",
"                    +    <%<<<=<<<=<=<<+                        ",
"                  $    + <<<<=<==<<<<<<                         ",
"                 +           <<<<<<=<+                          ",
"                          +  <<<<<<<<                           ",
"                                      +                         ",
"                        $ +       +  +                          ",
"                         +   +  +      +                        ",
"                        + + +     ++  +                         ",
"                             <<<<   +                           ",
"                         +   <<<<  +                            ",
"                             =<<<                               ",
"                          +  <<<<    +                          ",
"                             +     $  +                         ",
"                            + +  +   +                          ",
"                          +<<<<<<<<+                            ",
"                           <<<<<<<<   +                         ",
"                        +  + +    + +                           ",
"                             $ +   +                            ",
"                         +            +                         ",
"                                                                ",
"                                                                ",
"                                                                ",
"                                                                ",
"                                                                ",
"                                                                ",
"                                                                ",
"                                                                ",
"                                                                ",
"                                                                ",
"                                                                ",
"                                                                ",
"                                                                ",
"                                                                ",
"                                                                ",
"                                                                "
};
