/* XPM */
static char *_1a0c3111c2f496fa49b84097c5bb3a5eOPtdCwV35WZWynL[] = {
/* columns rows colors chars-per-pixel */
"64 64 5 1 ",
"  c #7EA354",
". c #828647",
"X c #CFBB80",
"o c #D2C08D",
"O c #D7C592",
/* pixels */
" oooooooooooooooooooooo.OOOOOOOOOOOOOOOOOO OOOOOOOOOOOOOOOOOOOOO",
" oooooooooooooooooooooo.OOOOOOOOOOOOOOOOOO OOOOOOOOOOOOOOOOOOOOO",
" oooooooooooooooooooooo OOOOOOOOOOOOOOOOOO OOOOOOOOOOOOOOOOOOOOO",
" oooooooooooooooooooooo OOOOOOOOOOOOOOOOOO OOOOOOOOOOOOOOOOOOOOO",
" oooooooooooooooooooooo OOOOOOOOOOOOOOOOOOXOOOOOOOOOOOOOOOOOOOOO",
"ooooooooooooooooooooooooOOOOOOOOOOOOOOOOOOXOOOOOOOOOOOOOOOOOOOOO",
"ooooooooooooooooooooooooOOOOOOOOOOOOOOOOOOXOOOOOOOOOOOOOOOOOOOOO",
"ooooooooooooooooooooooooOOOOOOOOOOOOOOOOOOXOOOOOOOOOOOOOOOOOOOOO",
"ooooooooooooooooooooooooOOOOOOOOOOOOOOOOOOOOOOOOOOOOOOOOOOOOOOOO",
"ooooooooooooooooooooooooOOOOOOOOOOOOOOOOOO OOOOOOOOOOOOOOOOOOOOO",
"ooooooooooooooooooooooooOOOOOOOOOOOOOOOOOO OOOOOOOOOOOOOOOOOOOOO",
"ooooooooooooooooooooooooOOOOOOOOOOOOOOOOOO OOOOOOOOOOOOOOOOOOOOO",
" oooooooooooooooooooooo OOOOOOOOOOOO OO OO  O OOOO OOOOOOOOOOOOO",
" o ooo oooooooooooooooo O OOOOOOO OO O  O   O O O  O OOOOOOOO O ",
".o o   ooooooooooooo oo.  OOOOOO   O      .          OOOOOOOO   ",
".        ...  ooooo    .   OOOOO....     ......         OOOO    ",
"OOOOOOOOOO OOOOOOOOOOOOOOOOOOOOO. ooooooooooooo OOOOOOOOOOOOOOOO",
"OOOOOOOOOO OOOOOOOOOOOOOOOOOOOOO oooooooooooooo OOOOOOOOOOOOOOOO",
"OOOOOOOOOO OOOOOOOOOOOOOOOOOOOOO oooooooooooooo OOOOOOOOOOOOOOOO",
"OOOOOOOOOOOOOOOOOOOOOOOOOOOOOOOO oooooooooooooo OOOOOOOOOOOOOOOO",
"OOOOOOOOOOOOOOOOOOOOOOOOOOOOOOOOooooooooooooooo OOOOOOOOOOOOOOOO",
"OOOOOOOOOOOOOOOOOOOOOOOOOOOOOOOOooooooooooooooo OOOOOOOOOOOOOOOO",
"OOOOOOOOOO OOOOOOOOOOOOOOOOOOOOOooooooooooooooo OOOOOOOOOOOOOOOO",
"OOOOOOOOOO OOOOOOOOOOOOOOOOOOOOOooooooooooooooo OOOOOOOOOOOOOOOO",
"OOOOOOOOOOOOOOOOOOOOOOOOOOOOOOOO oooooooooooooo OOOOOOOOOOOOOOOO",
"OOOOOOOOOOOOOOOOOOOOOOOOOOOOOOOO oooooooooooooo  OOOOOOOOOOOOOOO",
"OOOOOOOOOOOOOOOOOOOOOOOOOOOOOOOO oooooooooooooo  OOOOOOOOOOOOOOO",
"OOOOOOOOOOOOOOOOOOOOOOOOOOOOOOOO  ooooooooooooo  OO OOOOOOO OOOO",
"OOOOOOOOOOOOOOOOOOOOOOOOOOOOOOOO  ooo oo oooo o  O  OO OO O OOO ",
"OOOOOOOOOO OOOOOOO  OO OOOOOOOOO. o o  o  o o        O  O   O O ",
"OOOOOOOO O.OOOOOOOO  O O OOOOOOO.              .                ",
" OOOOOO   . OOOO           OOO  .   ......   .....             .",
"OOOOOOOOOOOOOOOOOO OOOOOOOOOOOOOOOO OOOOOOOOOOOOO  OOOOOOOOOOOOO",
"OOOOOOOOOOOOOOOOOO OOOOOOOOOOOOOOOO OOOOOOOOOOOOO OOOOOOOOOOOOOO",
"OOOOOOOOOOOOOOOOOO OOOOOOOOOOOOOOOO OOOOOOOOOOOOO OOOOOOOOOOOOOO",
"OOOOOOOOOOOOOOOOOO OOOOOOOOOOOOOOOO OOOOOOOOOOOOOXOOOOOOOOOOOOOO",
"OOOOOOOOOOOOOOOOOOOOOOOOOOOOOOOOOOOXOOOOOOOOOOOOOXOOOOOOOOOOOOOO",
"OOOOOOOOOOOOOOOOOOOOOOOOOOOOOOOOOOOXOOOOOOOOOOOOOXOOOOOOOOOOOOOO",
"OOOOOOOOOOOOOOOOOOOOOOOOOOOOOOOOOOOXOOOOOOOOOOOOOXOOOOOOOOOOOOOO",
"OOOOOOOOOOOOOOOOOOOOOOOOOOOOOOOOOOOXOOOOOOOOOOOOO OOOOOOOOOOOOOO",
"OOOOOOOOOOOOOOOOOOOOOOOOOOOOOOOOOOOOOOOOOOOOOOOOO OOOOOOOOOOOOOO",
"OOOOOOOOOOOOOOOOOOOOOOOOOOOOOOOOOOO OOOOOOOOOOOOO OOOOOOOOOOOOOO",
"OOOOOOOOOOOOOOOOOOOOOOOOOOOOOOOOO O OOOOOOOOOOOOO OOOOOOOOOOOOOO",
"OOOOOOOOOOOOOOOOOO OOOOOOOOOOOOOO O  OOOOOOOOOOOO OOOOOOOOOOOOOO",
"OOOOOOOOOOOOOOOOOO OOOOOOOOOOOOOOOO  OOOOOOOOOOOO  OOOOOOOOOOOOO",
"OOOOOOOO OOOOOOOOO OOOOOOOOOOOOOO O  OOOO O OOO    O O OOOOOOOOO",
"OOOOO O  OOOOOOOOO.OOOOOOOOOOO OO O  O O  O  O   .   O O O OOOOO",
"OOOO       OOOOO  .  OOOOOOOO      .             .   .       OOO",
"OOOOOOO OOOOOOOOOOOOOOOOOOOOOOOOOO  ooooooooooooooooo.      OOOO",
"OOOOOOO OOOOOOOOOOOOOOOOOOOOOOOOOOO ooooooooooooooooo. OOOOOOOOO",
"OOOOOOO OOOOOOOOOOOOOOOOOOOOOOOOOOO ooooooooooooooooo.OOOOOOOOOO",
"OOOOOOO OOOOOOOOOOOOOOOOOOOOOOOOOOO ooooooooooooooooo OOOOOOOOOO",
"OOOOOOOOOOOOOOOOOOOOOOOOOOOOOOOOOOO ooooooooooooooooo OOOOOOOOOO",
"OOOOOOOOOOOOOOOOOOOOOOOOOOOOOOOOOOOXoooooooooooooooooXOOOOOOOOOO",
"OOOOOOOOOOOOOOOOOOOOOOOOOOOOOOOOOOOXoooooooooooooooooXOOOOOOOOOO",
"OOOOOOOOOOOOOOOOOOOOOOOOOOOOOOOOOOOXooooooooooooooooooOOOOOOOOOO",
"OOOOOOOOOOOOOOOOOOOOOOOOOOOOOOOOOOOXooooooooooooooooooOOOOOOOOOO",
"OOOOOOOOOOOOOOOOOOOOOOOOOOOOOOOOOOO ooooooooooooooooooOOOOOOOOOO",
"OOOOOOOOOOOOOOOOOOOOOOOOOOOOOOOOOOO ooooooooooooooooooOOOOOOOOOO",
"OOOOOOOOOOOOOOOOOOOOOOOOOOOOOOOOOOO o ooooooooooooooo OOOOOOOOOO",
"OOOOOOO OOOOOOOOOOOOOOOOOOOOOOOOOOO o o oooo oooooooo OOOOOOOOOO",
"OOOOO O OOOOOOOOOOO OOOOOOOOOOOOO O   o  o o  o ooo o O OOOOOOOO",
"OOOO  O OOOOOOOOO O  OOOOOOOOOOO   .             oo o   O OOOOOO",
"O          OOOO        OOOOOOO    X...........              OOX "
};
