/* XPM */
static char *_40c9ea27db54b81cbb5a3b7d8b0c5e1ulxEaDVMhGMhmQ8z[] = {
/* columns rows colors chars-per-pixel */
"64 64 142 2 ",
"   c #010101",
".  c #080707",
"X  c #070708",
"o  c #080708",
"O  c #0C0B0C",
"+  c #100F0F",
"@  c #0F0F11",
"#  c #100F10",
"$  c #131313",
"%  c #181717",
"&  c #161619",
"*  c #181719",
"=  c #1C1C1C",
"-  c #201F1F",
";  c #1F1F20",
":  c #201F20",
">  c #232324",
",  c #272728",
"<  c #282728",
"1  c #2D2C2D",
"2  c #302F2F",
"3  c #2F2F30",
"4  c #333333",
"5  c #363638",
"6  c #383738",
"7  c #373839",
"8  c #3B3B3B",
"9  c #403F40",
"0  c #444444",
"q  c #484748",
"w  c #4C4C4C",
"e  c #4F4F50",
"r  c #504F50",
"t  c #535353",
"y  c #585757",
"u  c #585758",
"i  c #5B5B5B",
"p  c #605F5F",
"a  c #5E5E60",
"s  c #605F60",
"d  c #646364",
"f  c #686767",
"g  c #696768",
"h  c #6C6B6B",
"j  c #706F6F",
"k  c #6F6F70",
"l  c #706F70",
"z  c #747373",
"x  c #797877",
"c  c #767678",
"v  c #7B7B7B",
"b  c #807F7F",
"n  c #807F80",
"m  c #848383",
"M  c #888787",
"N  c #878788",
"B  c #888788",
"V  c #8B8B8B",
"C  c #908F8F",
"Z  c #949394",
"A  c #989797",
"S  c #989897",
"D  c #979798",
"F  c #989798",
"G  c #9C9B9C",
"H  c #A09F9F",
"J  c #9E9EA0",
"K  c #A09FA0",
"L  c #A3A3A3",
"P  c #A8A7A8",
"I  c #ACACAC",
"U  c #B0AFAF",
"Y  c #ADADB0",
"T  c #B0AFB0",
"R  c #B3B2B3",
"E  c #B4B4B4",
"W  c #B7B6B7",
"Q  c #B8B7B8",
"!  c #B9B9B9",
"~  c #BAB9B9",
"^  c #BBBBBB",
"/  c #BDBDBD",
"(  c #BFBFC0",
")  c #C0BFC0",
"_  c #C0C0C2",
"`  c #C3C3C3",
"'  c #C5C4C5",
"]  c #C5C5C6",
"[  c #C8C7C7",
"{  c #C8C8C7",
"}  c #C7C7C9",
"|  c #C8C7C8",
" . c #CBCACB",
".. c #CDCCCD",
"X. c #D0D0CF",
"o. c #D4D4D4",
"O. c #D5D4D4",
"+. c #D6D6D6",
"@. c #D8D7D7",
"#. c #D8D7D8",
"$. c gray86",
"%. c #DCDBDC",
"&. c #DDDDDD",
"*. c #DFDFDF",
"=. c #E0DFDF",
"-. c #E1E1E1",
";. c #E4E3E3",
":. c #E4E4E4",
">. c #E6E6E6",
",. c #E8E7E7",
"<. c #E7E8E7",
"1. c #E9E8E9",
"2. c #EAE9E9",
"3. c #EAEAEA",
"4. c #EBEAEB",
"5. c gray92",
"6. c #ECEBEC",
"7. c #ECECEC",
"8. c #EDECED",
"9. c #EFEEEF",
"0. c #F0EFEF",
"q. c #F0F0EF",
"w. c #F0EFF0",
"e. c #EFF0F0",
"r. c gray95",
"t. c #F3F2F3",
"y. c #F3F3F3",
"u. c #F4F3F3",
"i. c #F4F4F4",
"p. c #F5F4F5",
"a. c #F6F6F6",
"s. c gray97",
"d. c #F8F8F7",
"f. c #F7F7F8",
"g. c #F8F7F8",
"h. c #F7F8F8",
"j. c #F9F9F9",
"k. c gray98",
"l. c #FAFAFB",
"z. c #FBFBFB",
"x. c gray99",
"c. c #FEFDFE",
/* pixels */
"                  .     .                       X                                             o       X   .                     ",
"    $ > 1 1 2 2 1 1 1 1 1 1 2 2 1 1 1 1 1 2 1 1 1 1 1 1 1 1 , = O       & , 1 1 1 2 2 2 2 2 1 1 2 4 4 4 4 4 4 4 4 4 1 1 1 : X   ",
"  $ x ! ! ! W R U I I I R W W R R R W U U U I I P I I I U I I N >     + j U R R R U I W T R U I U I I I I L L I P I I I L z =   ",
"  = I i.1.&.%.&.8.i.y.i.y.-.1.i.k.k.k.x.k.x.k.x.k.k.k.x.k.k.i.! 4     = H 0.>.&.1.y.w.-.<.i.k.k.k.k.k.k.k.h.k.k.k.k.g.k.y.G ,   ",
"  = T 1.m w 8 q R c.c.c. .w c y.c.c.c.c.c.c.c.c.c.c.c.c.c.c.x.! 4     = L 1.L d I 8.! d Z y.c.c.x.x.c.c.c.c.c.c.c.x.c.c.u.L <   ",
"  > R ;.q O     v c.c.c.L . % W x.c.c.c.c.c.c.k.y.y.c.c.c.c.i.W 8     = L ;.M 0 b ..V 8 g 8.c.c.c.c.z.y.8.5.6.1.6.y.c.c.i.L <   ",
"  = W k.W g %   x x.c.c.V     1 m 8.c.c.c.c.y.I z I k.c.c.c.d.W 8     = H i.[ V h g z Z ( u.c.c.c.c.y.Z p i d d h P y.c.i.L < . ",
"  = / c.c.8.t   d u.c.c.I &     = ] c.c.c.c.1.k & d i.c.c.c.d.Q 8     = H g.c.:.g @ q +.k.c.c.c.c.x.+.y @ X . O > m y.c.i.L <   ",
"  = ` c.c.y.w   & d ( c.y.J 8 X @ _ c.c.c.c.1.f O i y.c.c.c.i.Q 6     = G k.c.0.f X O d ( k.c.c.1.L v l i =   > z ` f.c.i.L 1   ",
"  & ] c.c.y.t       d k.k.c.L O @ W c.c.c.c.6.d O i 1.c.x.c.k.! 8     = L k.c.i.x @   . w 6.c.c.+.q 9 ! +.t % h >.x.c.c.i.L < . ",
"  $ ] c.c.k.G d q i R c.c.c.! $ X 0 G 1.c.c.8.a X = v ..k.c.h.! 8     = L k.c.c.` g $   5 >.c.c.,.v v 8.;.y % x u.c.c.c.i.L < . ",
"  @ ( c.c.c.c.y.y.i.c.c.c.c.} & X X ; ! c.c.8.g O   $ g 6.c.k.! 8     = L c.c.c.x.1.z O 0 -.c.c.c.i.u.c.>.y $ z y.c.c.c.i.L <   ",
"  O _ c.c.c.c.c.c.c.-.G +.c.>.n q 8 a o.c.c.y.I i * X t >.c.i.! 8     & L z.c.c.c.c.o.i d G ] y.c.c.c.c.-.t & z i.c.c.c.i.L 1   ",
"  O ] c.c.c.c.c.c.c.G O t y.c.h.8.1.y.c.c.c.c.c.-.f O w >.c.i.! 8     = H c.c.c.c.c.c.>.N = 3 +.c.c.c.c.=.t $ z y.c.c.c.i.L <   ",
"  O V / W Q >.c.c.c.x   O m >.c.c.c.c.c.c.c.k.,./ 0 O t >.c.i.! 8     O z Q ! ! $.c.c.c.Q 8 e %.c.c.c.c.=.t & z y.c.c.c.y.L < X ",
"    X O $ = I c.c.c.z       d 8.c.c.c.c.c.c.y.m , X X y <.c.k.! 8       O $ = - m c.c.c.y.:.1.z.c.c.c.c.=.t & z i.c.c.c.y.L ,   ",
"            D c.c.c.L 4 = & 8 Z (  .%.k.c.c.u.C 5 > 2 m 1.c.d./ 8               z c.c.c.c.c.c.c.c.c.c.c.-.r + r ] 1.c.c.i.L 1   ",
"            A c.c.c.k.-.+.{ G 8 $ & 4 $.c.c.c.>. .( ] $.d.c.i./ 8               h c.c.c.c.c.c.c.c.c.c.c.-.w   . 4 Z i.c.i.L ,   ",
"            m -.-.;.i.c.c.c. .8 .   X x *.k.c.c.c.c.c.c.c.c.h./ 6               i -.-.;.:.-.-.-.:.k.c.c.1.z , = 1 N y.c.y.L ,   ",
"            $ , 1 4 D c.c.c.k.+.d .   X q  .c.c.c.c.c.c.c.c.h./ 8               $ 1 6 8 8 8 8 0 i 1.c.c.k.o.W I I o.i.c.y.L ,   ",
"                    i c.c.c.c.c.-.q % % , P c.c.c.c.c.c.c.c.k./ 8                               = $.c.c.c.c.c.k.k.c.c.c.u.L ,   ",
"                    i c.c.c.c.c.c.o.L G U 1.c.c.c.c.c.c.c.c.k.) 4                               = @.c.c.c.c.c.c.c.c.c.c.k.K =   ",
"                    y y.y.y.y.y.u.0.1.1.1.y.y.8.0.0.y.0.y.y.8.W <                               & X.i.y.y.y.y.y.y.y.y.y.1.Z =   ",
"                    > i i i d d h z z j h h h g g f d d f f d t O                               . w p p d d d g g d g g d q O   ",
"                            .   . . . . . X X . . . . . . .                                               . X . . . . .         ",
"                                                                                                                                ",
"                                            . .   X .     X   X .   .     .       o                   .   .                     ",
"  . 2 i i i i i i i i i y y q o     . 4 y i i i i d p i i i i i i i i u i i i d s s i t 8 .     O w d d d d d d i =   $ t 8 .   ",
"  & G i.k.k.h.i.i.i.i.i.i.i.! &     $ G q.i.y.>.>.>.>.e.y.y.y.y.9.y.y.y.y.y.y.u.i.i.i.6.S +     = { 8.8.1.1.1.<.+.d $ q X.G $   ",
"  = I k.c.c.c.c.c.c.c.c.c.c./ =     & I c.c.k...! R Q 1.c.c.c.c.c.c.x.c.c.c.,.$.8.c.c.i.G $     $ C U W W W W U P k y I y.I =   ",
"  = I c.c.c.c.c.c.c.c.c.c.k.! >     $ R c.c.u.m , & % x y.c.c.c.c.c.c.c.c.y.i , m k.c.i.G &       + % = - = = = - h  .i.g.L =   ",
"  = I k.&./ Q / 8.c.y. .-.k.! 1     $ Q c.c.y.V <     $ V 6.c.c.c.k.+.! / L = X g d.c.y.G %     X % % X   + > , 4 G g.c.u.L =   ",
"  = I <.i # X = I c.L 4 h 8.! ,     $ Q c.c.c.f.o.w     O N c.c.c.>.t $ & O   o f i.c.i.G =     = G G 1 + d )  . .<.c.c.i.L >   ",
"  = E 1.u O     y / c 1 z q.! >     @ R c.c.c.c.c.` 4     , L +.$.I 8 O       X z y.c.i.G =     1 +.+.0 = m i.c.c.c.c.c.i.L >   ",
"  = R z.>.S ,   o = t I ,.k.! ,     + I c.c.c.c.c.k.( q     O > , 8 G Z >     o z k.c.i.S =     1 +.+.0 % M k.c.c.c.c.c.i.L >   ",
"  = Q c.c.8.i     O v k.c.k.Q >     $ S 1.1.1.i.c.c.c.! , O O     = o.u.m = & > V k.c.i.G =     < I W w 4 m $.u.k.d.1.q.i.L >   ",
"  = ! c.c.>.q   - L 1.c.c.k.! ,     . , 6 9 q I c.c.c.y./ I G i   $  .c.8.] T R +.c.c.i.G =     O , q x C f d I 5.R d Z 1.L 1   ",
"  = ! c.c.>.t $ m c.c.c.c.k.! >               m c.c.c.c.c.c.c.! & $ L 1.y.k.k.k.c.c.c.i.G =         9  .@.t % v ,.M > y -.I >   ",
"  = _ c.c.i.+.I 8.c.c.c.c.c.! =               m c.c.c.c.c.c.c.{ $   = 8 u z ] c.c.c.c.i.G =     O w I k.-.w O x >.m $ t &.I >   ",
"  & ` c.c.c.x.i.k.k.i.k.d.i.! =               m c.c.c.c.c.c.c..., O       O B c.c.c.c.i.G =     > ! c.c.-.t > M >.x $ t &.I >   ",
"  $ ( c.c.y.I B v z z z z h y O               4 g z z L c.c.c.8.G k d w . . x c.c.c.c.u.Z =     > ` c.c.1.G V $.1.z $ t &.R =   ",
"  $ ( c.c.>.d + . . . X X .                           t k.c.c.c.k.k.k.@.4 $ N c.c.c.c.i.G =     > ] c.c.c.i.k.c.1.d O t &.U >   ",
"  $ ! c.c.>.d                                         t k.c.c.c.c.c.c.i.G j  .c.c.c.c.i.G =     < ] c.c.c.c.c.@.m 1 O t &.R =   ",
"  @ Q c.c.>.i                                         w k.c.c.c.c.c.c.k.y.0.k.k.k.c.z.i.Z &     > { c.k.c.c.q.h O     t &.I =   ",
"  O z G L V 1                                         4 G G G A G G G G G G G A G G Z Z g O     * m H G G G N ,       8 V h %   ",
"    . . O X                                             . . O O O # $ $ $ # $ $ $ % & O O         O @ $ $ & $           O O     ",
"                                                                                                                                ",
"                                                                                                                                ",
"    $ < 1 1 1 2 1 1 1 2 2 1 1 1 2 1 4 1 1 1 1 1 < 1 < < < , > = X       # > , 1 1 1 1 2 2 2 3 1 1 1 4 1 1 1 2 2 1 1 1 < < = .   ",
"  $ b ]  .] ] ] [ { { ] ] { { ] ] } ]  . . . . ... . ... . .[ G =     O x / / ` ] ] ] ] } }  .} ] | } } ] ] ] [ [ [ ] ] ) m $   ",
"  - P 8.&.#.o.$.1.u.u.y.1.@.o.o.#.8.i.y.y.*.+.o.o.+.$.-.g.k.f.! <     % G i.k.h.1.+.+.$.6.k.k.k.k.c.k.k.i.>.+.+.$.5.k.k.i.G =   ",
"  = I 1.v 0 8 w G z.c.c.! y 8 5 i &.c.c.9.m 0 8 8 0 e V i.c.k.! 1     % L z.c.c.G 8 3 4 Z c.c.c.c.c.c.c.i.v 8 8 q G k.c.i.G =   ",
"  = I -.r $   O g y.c.k.G %   O 8 ..c.c.>.i O X $ . O w ,.c.k.! 1     & H d.i.&.f $     , ) u.c.c.c.c.y.o.q $ X O g y.c.d.G >   ",
"  - R i.` z & O d i.c.i.V O O d / y.c.c.-.y O 4 x 1 O 0 1.c.k.! 4     & L >.G y p N 9     , v 5.c.c.>.z t g m , O d 8.c.i.L >   ",
"  - R k.c.&.t $ d e.c.1.z O > ..c.c.c.c.-.i $ z &.D < i o.i.h.! 4     & L ;.z 1 n 8.E - O O 0 -.c.c.&.y 4 G $.i % d 8.c.i.K >   ",
"  = R k.c.>.y $ a 8.$.z ,   1 +.c.c.c.c.-.y $ v y.,.F g d A 8.! 4     % H u.+.b  .c.0.L v z J 8.c.c.1.L V +.-.i $ d 8.c.i.L ,   ",
"  = W k.d.@.i = h 1.D $     4  .i.c.c.k.+.i , m i.c.e.A 3 i -./ 4     $ G 6.y.6.y.y.y.8.0.u.k.c.c.c.c.i.k.c.1.g > d &.k.i.L <   ",
"  > R 1.L v g V ( 1.m O O y z l F >.8.I b j V / k.c.c.$.v G 8.) 4     O q x v m m m m m W k.c.c.c.c.c.c.c.c.y.I N h b ! 8.L ,   ",
"  , I =.d 4 V 8.c.q.C = 0 o.( q t  .%.s 8 G w.k.c.c.c.c.y.y.k./ 4       . X O O O + O O w y.c.c.c.c.c.c.c.c.c.k.<.m 2 h ;.P ,   ",
"  > I 1.V h ` c.c.i.! z L k.8.m m &.1.Z z +.c.c.c.c.c.c.c.x.k./ 4                       0 8.c.c.c.c.c.c.c.c.c.c.k.) h G 1.P >   ",
"  = I 8.8.1.y.u.i.y.1.>.8.y.y.1.6.y.u.6.5.i.f.i.d.i.k.k.k.k.i.! 1                       0 8.k.k.k.k.k.k.k.u.h.i.i.y.1.8.q.L -   ",
"  $ h D G G G D G Z G G G G G G H G K K L L K G G G D G G G L v =                       1 Z G G G G G G G G S G G G L L H h %   ",
"    O % = = = = = > > : - > > > - : : = - : > > > > > = ; > = $ X                       X + $ % = = = > - = = = > = = > = $     ",
"                                                                                                                                "
};
